<svg width="16" height="16" viewBox="0 0 16 16" fill="none" xmlns="http://www.w3.org/2000/svg">
<path d="M8 1C4.13438 1 1 4.13438 1 8C1 11.8656 4.13438 15 8 15C11.8656 15 15 11.8656 15 8C15 4.13438 11.8656 1 8 1ZM10.2516 8.10781L6.83906 10.5906C6.82035 10.6041 6.7983 10.6121 6.77533 10.6138C6.75236 10.6155 6.72935 10.6109 6.70884 10.6004C6.68834 10.5899 6.67112 10.574 6.65908 10.5543C6.64705 10.5347 6.64066 10.5121 6.64062 10.4891V5.52656C6.64055 5.50348 6.64687 5.48082 6.65888 5.46111C6.67089 5.4414 6.68812 5.4254 6.70867 5.41488C6.72922 5.40436 6.75228 5.39974 6.7753 5.40153C6.79831 5.40331 6.82038 5.41144 6.83906 5.425L10.2516 7.90625C10.2677 7.91765 10.2808 7.93275 10.2899 7.95029C10.299 7.96783 10.3037 7.98729 10.3037 8.00703C10.3037 8.02678 10.299 8.04623 10.2899 8.06377C10.2808 8.08131 10.2677 8.09641 10.2516 8.10781V8.10781Z" fill="#1F1D1D"/>
</svg>
