<svg width="19" height="19" viewBox="0 0 19 19" fill="none" xmlns="http://www.w3.org/2000/svg">
<path d="M17.207 7.28438L12.496 6.59971L10.39 2.33028C10.3325 2.21339 10.2379 2.11876 10.121 2.06124C9.82782 1.91651 9.47157 2.03712 9.32499 2.33028L7.21903 6.59971L2.508 7.28438C2.37812 7.30294 2.25937 7.36417 2.16845 7.45694C2.05853 7.56991 1.99796 7.7219 2.00005 7.87951C2.00214 8.03712 2.06671 8.18745 2.17958 8.29747L5.58808 11.6206L4.7828 16.3131C4.76392 16.4223 4.776 16.5345 4.81767 16.6372C4.85934 16.7398 4.92894 16.8287 5.01857 16.8938C5.10821 16.9589 5.21429 16.9976 5.32479 17.0055C5.43528 17.0133 5.54578 16.9901 5.64374 16.9384L9.85751 14.723L14.0713 16.9384C14.1863 16.9996 14.3199 17.02 14.4479 16.9978C14.7708 16.9421 14.9879 16.6359 14.9322 16.3131L14.1269 11.6206L17.5354 8.29747C17.6282 8.20655 17.6894 8.0878 17.708 7.95792C17.7581 7.63321 17.5317 7.33262 17.207 7.28438V7.28438Z" fill="#E0B20D"/>
</svg>
