<svg width="427" height="427" viewBox="0 0 427 427" fill="none" xmlns="http://www.w3.org/2000/svg">
<path d="M425.717 396.308L287.103 257.693C308.613 229.885 320.249 195.885 320.249 160.124C320.249 117.318 303.542 77.1799 273.332 46.9164C243.122 16.6529 202.877 0 160.124 0C117.371 0 77.1265 16.7063 46.9164 46.9164C16.6529 77.1265 0 117.318 0 160.124C0 202.877 16.7063 243.122 46.9164 273.332C77.1265 303.596 117.318 320.249 160.124 320.249C195.885 320.249 229.832 308.613 257.64 287.156L396.254 425.717C396.661 426.124 397.143 426.446 397.674 426.667C398.206 426.887 398.775 427 399.35 427C399.925 427 400.494 426.887 401.026 426.667C401.557 426.446 402.039 426.124 402.446 425.717L425.717 402.499C426.124 402.093 426.446 401.61 426.667 401.079C426.887 400.548 427 399.978 427 399.403C427 398.828 426.887 398.259 426.667 397.728C426.446 397.197 426.124 396.714 425.717 396.308V396.308ZM244.67 244.67C222.039 267.247 192.042 279.684 160.124 279.684C128.206 279.684 98.2096 267.247 75.5787 244.67C53.0011 222.039 40.5648 192.042 40.5648 160.124C40.5648 128.206 53.0011 98.1562 75.5787 75.5787C98.2096 53.0011 128.206 40.5648 160.124 40.5648C192.042 40.5648 222.092 52.9478 244.67 75.5787C267.247 98.2096 279.684 128.206 279.684 160.124C279.684 192.042 267.247 222.092 244.67 244.67Z" fill="#555454"/>
</svg>
