<svg width="19" height="19" viewBox="0 0 19 19" fill="none" xmlns="http://www.w3.org/2000/svg">
<path d="M5.54175 8.70837H7.12508V10.2917H5.54175V8.70837ZM5.54175 11.875H7.12508V13.4584H5.54175V11.875ZM8.70841 8.70837H10.2917V10.2917H8.70841V8.70837ZM8.70841 11.875H10.2917V13.4584H8.70841V11.875ZM11.8751 8.70837H13.4584V10.2917H11.8751V8.70837ZM11.8751 11.875H13.4584V13.4584H11.8751V11.875Z" fill="#A5A5A5"/>
<path d="M3.95833 17.4167H15.0417C15.9149 17.4167 16.625 16.7066 16.625 15.8334V4.75004C16.625 3.87683 15.9149 3.16671 15.0417 3.16671H13.4583V1.58337H11.875V3.16671H7.125V1.58337H5.54167V3.16671H3.95833C3.08512 3.16671 2.375 3.87683 2.375 4.75004V15.8334C2.375 16.7066 3.08512 17.4167 3.95833 17.4167ZM15.0417 6.33337L15.0425 15.8334H3.95833V6.33337H15.0417Z" fill="#A5A5A5"/>
</svg>
